<svg xmlns="http://www.w3.org/2000/svg" width="500" height="500" viewBox="0 0 500 500" version="1.1"><path d="M 248.250 129.750 C 473 130.004, 473 130.004, 473 221.002 C 473 312, 473 312, 470.750 312.021 C 469.512 312.033, 367.700 312.044, 244.500 312.046 C 20.500 312.050, 20.500 312.050, 20 222.371 C 19.564 144.259, 19.315 132.915, 18.064 134.422 C 16.991 135.715, 16.927 136.337, 17.809 136.882 C 18.698 137.431, 19.052 159.289, 19.245 225.556 C 19.500 313.500, 19.500 313.500, 246.750 313.752 C 474 314.004, 474 314.004, 474.014 307.002 C 474.021 303.151, 474.027 276.150, 474.027 247 C 474.027 217.850, 474.021 179.375, 474.014 161.500 C 474 129, 474 129, 248.750 129.248 C 23.500 129.496, 23.500 129.496, 248.250 129.750 M 95 142.641 C 93.867 142.950, 93.479 144.698, 93.414 149.775 C 93.350 154.755, 91.599 162.857, 86.665 181 C 75.003 223.875, 70.077 242.149, 66.498 255.801 C 60.689 277.963, 57.125 283.815, 48.755 284.932 C 44.500 285.500, 44.500 285.500, 44.197 290.768 C 43.894 296.036, 43.894 296.036, 68.197 295.768 C 92.500 295.500, 92.500 295.500, 92.828 292.629 C 93.554 286.276, 92.620 285.272, 85.567 284.823 C 73.904 284.081, 72.816 280.612, 78.092 261 C 83.998 239.050, 80.882 241.539, 102.833 241.228 C 113.375 241.079, 122 241.117, 122 241.314 C 122 241.510, 124.035 248.352, 126.522 256.518 C 133.786 280.368, 132.870 285, 120.889 285 C 115 285, 115 285, 115 290.500 C 115 296, 115 296, 144.500 296 C 174 296, 174 296, 174 290.611 C 174 285.272, 173.969 285.217, 170.591 284.583 C 168.403 284.173, 165.914 282.540, 163.642 280.026 C 159.994 275.987, 157.561 269.307, 149.977 242.500 C 148.265 236.450, 145.366 226.550, 143.533 220.500 C 141.701 214.450, 138.305 202.975, 135.987 195 C 125.072 157.459, 120.867 144.422, 119.295 143.250 C 117.711 142.070, 98.830 141.596, 95 142.641 M 236.112 143.581 C 212.855 149.835, 194.440 169.897, 187.282 196.776 C 185.026 205.251, 184.687 208.556, 184.643 222.500 C 184.601 236.041, 184.940 239.807, 186.851 247 C 193.904 273.543, 212.189 292.640, 235.299 297.599 C 243.562 299.372, 257.028 299.318, 264.825 297.479 C 288.661 291.860, 307.602 271.141, 314.627 243 C 317.293 232.323, 317.302 203.738, 314.643 193 C 308.486 168.139, 290.827 149.064, 268.936 143.630 C 260.771 141.602, 243.563 141.577, 236.112 143.581 M 239.500 143.952 C 227.595 146.517, 218.099 151.865, 208.548 161.383 C 192.529 177.349, 185.767 195.627, 185.752 223 C 185.746 234.564, 186.180 239.221, 187.898 246 C 196.176 278.676, 219.346 298, 250.248 298 C 288.413 298, 316.062 264.619, 315.980 218.640 C 315.949 200.961, 313.530 189.138, 307.361 176.500 C 303.694 168.989, 293.817 157.630, 286.826 152.882 C 277.135 146.301, 268.679 143.783, 255 143.407 C 248.675 143.233, 241.700 143.478, 239.500 143.952 M 346.819 144.874 C 337.645 145.768, 329.871 146.773, 329.545 147.107 C 329.219 147.442, 329.722 148.342, 330.663 149.107 C 332.150 150.318, 332.298 150.294, 331.788 148.930 C 331.279 147.569, 333.960 147.116, 351.880 145.534 C 388.298 142.320, 407.726 144.286, 420.534 152.478 C 431.942 159.776, 436.573 169.142, 435.793 183.338 C 435.110 195.781, 430.693 202.564, 420.250 207.205 C 417.913 208.244, 416 209.416, 416 209.811 C 416 210.205, 418.254 211.598, 421.008 212.906 C 431.897 218.075, 439.895 229.425, 442.113 242.852 C 445.369 262.570, 435.873 282.199, 419.312 289.984 C 409.687 294.508, 404.690 294.970, 365.193 294.985 C 327.885 295, 327.885 295, 328.193 290.750 C 328.500 286.500, 328.500 286.500, 333.573 285.881 C 341.400 284.925, 345.947 282.327, 348.105 277.576 C 349.830 273.778, 349.958 269.936, 349.978 221.193 C 349.993 186.302, 349.633 167.427, 348.897 164.504 C 347.585 159.293, 345.430 157.112, 340.494 155.999 C 336.215 155.034, 336.698 155.971, 341.249 157.465 C 343.156 158.091, 345.211 159.883, 346.451 162 C 348.449 165.412, 348.500 166.867, 348.500 220 C 348.500 270.217, 348.361 274.754, 346.733 277.733 C 344.509 281.802, 340.526 283.882, 333.224 284.789 C 327.500 285.500, 327.500 285.500, 327.196 290.802 C 326.892 296.104, 326.892 296.104, 367.696 295.766 C 413.568 295.385, 413.737 295.362, 424.960 287.868 C 447.669 272.703, 450.443 236.401, 430.300 217.991 C 427.367 215.311, 423.400 212.551, 421.484 211.858 C 418.052 210.617, 416.796 209, 419.263 209 C 422.168 209, 431.038 201.791, 433.680 197.284 C 436.067 193.211, 436.498 191.252, 436.817 183.031 C 437.129 175.007, 436.834 172.561, 434.950 167.559 C 430.690 156.245, 419.027 147.912, 402.792 144.581 C 392.885 142.549, 369.420 142.672, 346.819 144.874 M 95.034 147.118 C 96.012 150.530, 96.734 147.498, 81.505 204 C 76.687 221.875, 70.995 243.170, 68.856 251.322 C 61.319 280.045, 58.904 284.165, 48.250 286.459 C 45.255 287.104, 45 287.467, 45 291.079 C 45 295, 45 295, 67.891 295 C 90.781 295, 90.781 295, 91.190 291.499 C 91.713 287.019, 90.612 286, 85.250 286 C 80.414 286, 75.571 283.929, 74.621 281.455 C 72.946 277.089, 74.149 270.402, 80.821 247 C 82.674 240.500, 82.674 240.500, 90.087 239.795 C 94.164 239.408, 103.183 239.350, 110.130 239.667 C 122.759 240.243, 122.759 240.243, 127.463 255.536 C 133.203 274.194, 133.746 277.656, 131.592 281.823 C 129.927 285.042, 129.017 285.435, 120.750 286.507 C 116 287.123, 116 287.123, 116 291.061 C 116 295, 116 295, 144.500 295 C 173 295, 173 295, 173 291.106 C 173 287.458, 172.700 287.063, 168.250 284.856 C 161.312 281.415, 158.859 276.916, 153.026 256.935 C 144.064 226.238, 135.898 198.574, 135.039 196 C 134.581 194.625, 133.519 191.025, 132.681 188 C 130.793 181.185, 128.421 173.183, 123.419 156.750 C 119.538 144, 119.538 144, 106.839 144 C 94.140 144, 94.140 144, 95.034 147.118 M 241.734 153.088 C 222.384 157.647, 211.037 179.594, 211.019 212.500 C 211.003 240.767, 217.911 264.082, 230.326 277.666 C 237.704 285.739, 243.458 288.204, 254.728 288.121 C 278.338 287.945, 292.666 260.554, 290.623 219.500 C 288.387 174.555, 268.025 146.894, 241.734 153.088 M 376.234 152.650 C 373.968 153.143, 373.968 153.143, 374.234 179.822 C 374.500 206.500, 374.500 206.500, 383.249 206.789 C 394.922 207.174, 399.511 205.832, 404.595 200.546 C 409.219 195.738, 411 190.407, 411 181.373 C 411 167.629, 404.796 157.055, 395 154.104 C 390.148 152.643, 379.908 151.849, 376.234 152.650 M 235 157.034 C 227.878 160.916, 223.506 165.811, 219.311 174.598 C 210.488 193.079, 209.521 225.905, 217.073 250.558 C 221.794 265.970, 230.999 279.237, 240.500 284.324 C 246.616 287.599, 260.674 287.433, 267.383 284.007 C 285.102 274.958, 293.635 240.952, 287.835 202.500 C 285.433 186.570, 276.286 167.646, 267.514 160.458 C 261.345 155.403, 257.147 153.997, 248.282 154.018 C 241.546 154.034, 239.761 154.439, 235 157.034 M 375.233 179.750 C 375.500 205.500, 375.500 205.500, 382.500 205.827 C 397.692 206.536, 405.432 202.202, 408.631 191.196 C 411.727 180.546, 408.795 165.857, 402.365 159.803 C 397.762 155.470, 392.987 154, 383.515 154 C 374.966 154, 374.966 154, 375.233 179.750 M 100.948 172.191 C 100.920 172.361, 99.874 176.325, 98.625 181 C 97.375 185.675, 94.503 196.481, 92.241 205.014 C 89.980 213.547, 87.647 221.798, 87.058 223.348 C 86.468 224.899, 86.240 226.580, 86.552 227.084 C 86.863 227.588, 93.856 228, 102.090 228 C 113.857 228, 117.176 227.706, 117.589 226.628 C 117.879 225.873, 115.435 216.310, 112.159 205.378 C 108.883 194.445, 105.419 182.675, 104.462 179.223 C 103.504 175.770, 102.334 172.706, 101.861 172.414 C 101.387 172.121, 100.977 172.021, 100.948 172.191 M 94.679 200.296 C 90.968 214.158, 87.948 225.838, 87.966 226.250 C 88.010 227.227, 114.137 227.200, 115.675 226.222 C 116.525 225.681, 114.837 218.623, 109.575 200.720 C 105.573 187.105, 102.102 175.769, 101.862 175.529 C 101.622 175.288, 98.389 186.434, 94.679 200.296 M 375.031 215.833 C 373.578 216.303, 373.661 266.322, 375.126 273.154 C 376.408 279.130, 380.504 284.023, 384.173 283.961 C 386.288 283.925, 386.227 283.801, 383.500 282.597 C 375.884 279.236, 375.055 275.338, 375.024 242.750 C 375 217, 375 217, 379.500 217 C 381.975 217, 384 216.641, 384 216.201 C 384 215.432, 377.144 215.150, 375.031 215.833 M 389 216.139 C 401.950 219.092, 408.338 223.941, 411.930 233.544 C 416.021 244.476, 415.574 263.035, 411.004 271.992 C 408.816 276.282, 402.959 281.738, 399.732 282.494 C 398.504 282.781, 395.025 283.448, 392 283.975 C 386.500 284.934, 386.500 284.934, 392.883 284.469 C 409.308 283.270, 416.868 271.208, 415.742 248 C 415.143 235.641, 412.571 228.723, 406.372 222.799 C 401.683 218.317, 397.288 216.402, 390 215.667 C 384.500 215.113, 384.500 215.113, 389 216.139 M 29.894 318.961 C 36.333 320.004, 38.929 324.915, 35.750 330.044 C 34.740 331.675, 34.754 332.219, 35.826 332.886 C 36.555 333.340, 37.385 335.464, 37.671 337.606 C 38.073 340.617, 37.699 342.124, 36.023 344.250 C 34.121 346.663, 33.170 347, 28.272 347 C 22.928 347, 22.760 346.922, 24.345 345.171 C 26.631 342.645, 26.761 323.904, 24.509 321.652 C 23.379 320.522, 23.318 320.039, 24.259 319.659 C 24.942 319.384, 24.488 319.122, 23.250 319.079 C 20.620 318.987, 20.284 320.500, 22.640 321.819 C 25.061 323.173, 25.014 343.853, 22.588 345.211 C 19.642 346.859, 22.013 348, 28.385 348 C 33.642 348, 35.002 347.627, 36.826 345.686 C 39.493 342.846, 39.884 334.978, 37.458 332.965 C 36.388 332.077, 36.234 331.366, 36.958 330.642 C 37.531 330.069, 38 327.923, 38 325.873 C 38 321.094, 34.386 317.943, 29.115 318.125 C 25.542 318.249, 25.551 318.259, 29.894 318.961 M 98.112 321.750 C 97.581 323.813, 96.399 329.325, 95.485 334 C 94.571 338.675, 93.212 343.461, 92.464 344.635 C 90.773 347.291, 91.436 348, 95.608 348 C 99.341 348, 100.815 346.555, 98.439 345.226 C 97.394 344.641, 96.951 343.313, 97.168 341.414 C 97.429 339.122, 98.058 338.435, 100.114 338.197 C 102.356 337.937, 102.822 338.358, 103.380 341.148 C 103.855 343.523, 103.621 344.633, 102.515 345.251 C 99.611 346.877, 101.035 348, 106 348 C 111.413 348, 111.714 347.610, 109.603 343.331 C 108.835 341.774, 107.445 337.125, 106.515 333 C 103.275 318.627, 103.045 318, 101 318 C 99.616 318, 98.807 319.051, 98.112 321.750 M 240.217 319.561 C 233.508 324.259, 232.402 340.271, 238.396 345.902 C 244.342 351.488, 250.883 348.649, 253.601 339.302 C 257.467 326.001, 248.953 313.442, 240.217 319.561 M 311.250 318.807 C 306.619 319.143, 306.329 319.529, 308.532 322.441 C 310.633 325.219, 310.616 343.244, 308.511 344.991 C 306.045 347.037, 307.796 348, 313.982 348 C 318.818 348, 320.381 347.550, 322.894 345.436 C 327.763 341.339, 329.240 333.227, 326.513 325.571 C 324.491 319.897, 320.519 318.137, 311.250 318.807 M 387.578 319.250 C 387.380 319.938, 386.707 322.975, 386.083 326 C 383.177 340.076, 381.989 344.504, 381.033 344.822 C 380.465 345.012, 380 345.804, 380 346.583 C 380 347.569, 381.216 348, 384 348 C 388.062 348, 388.865 347.265, 386.922 345.322 C 386.329 344.729, 385.991 342.951, 386.172 341.372 C 386.429 339.124, 387.068 338.434, 389.114 338.197 C 391.356 337.937, 391.822 338.358, 392.380 341.148 C 392.855 343.523, 392.621 344.633, 391.515 345.251 C 388.611 346.877, 390.035 348, 395 348 C 397.750 348, 400 347.830, 400 347.622 C 400 347.414, 399.347 345.680, 398.548 343.769 C 397.749 341.858, 396.097 335.841, 394.877 330.397 C 392.544 319.997, 391.653 318, 389.346 318 C 388.571 318, 387.775 318.563, 387.578 319.250 M 99.402 321.536 C 99.024 323.042, 99.178 324.496, 99.753 324.857 C 100.674 325.435, 102.980 332.201, 102.994 334.363 C 102.997 334.838, 101.667 335.031, 100.038 334.792 C 98.116 334.510, 96.891 334.843, 96.546 335.740 C 96.208 336.621, 96.648 337.059, 97.758 336.946 C 102.776 336.437, 103.773 336.978, 104.448 340.576 C 104.867 342.808, 104.675 344.687, 103.937 345.576 C 102.956 346.758, 103.304 347, 105.985 347 C 108.665 347, 109.093 346.703, 108.501 345.250 C 108.108 344.288, 106.578 338.131, 105.100 331.569 C 102.407 319.611, 100.658 316.531, 99.402 321.536 M 162.549 319.921 C 162.259 320.390, 162.692 321.329, 163.511 322.009 C 164.653 322.957, 165 325.638, 165 333.500 C 165 341.362, 164.653 344.043, 163.511 344.991 C 160.789 347.250, 163.028 348, 172.500 348 C 182.051 348, 184.214 347.253, 181.407 344.923 C 180.544 344.206, 178.529 341.029, 176.931 337.863 C 174.025 332.107, 174.025 332.107, 175.876 327.789 C 176.894 325.415, 178.458 322.865, 179.352 322.123 C 180.246 321.381, 180.750 320.404, 180.470 319.952 C 179.795 318.859, 163.223 318.830, 162.549 319.921 M 244.692 320.010 C 245.897 320.495, 247.562 321.929, 248.391 323.196 C 251.869 328.509, 251.600 340.906, 247.922 344.854 C 246.822 346.034, 246.311 347, 246.787 347 C 247.262 347, 248.735 345.847, 250.059 344.437 C 252.050 342.318, 252.531 340.608, 252.836 334.584 C 253.342 324.548, 250.218 318.857, 244.316 319.063 C 242.814 319.116, 242.878 319.279, 244.692 320.010 M 388.683 319.650 C 387.498 320.835, 387.941 324.084, 389.500 325.643 C 390.325 326.468, 391 328.199, 391 329.490 C 391 330.780, 391.295 332.606, 391.656 333.546 C 392.217 335.007, 391.782 335.193, 388.656 334.828 C 386.051 334.524, 385 334.788, 385 335.745 C 385 336.483, 385.563 337.015, 386.250 336.925 C 391.339 336.264, 392.740 337.008, 393.337 340.687 C 393.678 342.793, 393.468 344.937, 392.845 345.687 C 391.983 346.725, 392.431 347, 394.985 347 C 397.676 347, 398.091 346.708, 397.474 345.250 C 397.067 344.288, 395.546 338.450, 394.094 332.277 C 391.555 321.484, 390.144 318.190, 388.683 319.650 M 451.570 319.887 C 451.269 320.374, 451.692 321.329, 452.511 322.009 C 453.653 322.957, 454 325.638, 454 333.500 C 454 341.362, 453.653 344.043, 452.511 344.991 C 450.209 346.902, 451.686 348, 456.559 348 C 459.724 348, 461 347.593, 461 346.583 C 461 345.804, 460.483 344.994, 459.851 344.784 C 459.219 344.573, 458.657 342.398, 458.601 339.950 C 458.500 335.509, 458.507 335.499, 462.250 335.190 C 466 334.879, 466 334.879, 466 339.381 C 466 341.856, 465.550 344.160, 465 344.500 C 464.450 344.840, 464 345.766, 464 346.559 C 464 347.600, 465.249 348, 468.500 348 C 471.833 348, 473 347.611, 473 346.500 C 473 345.675, 472.550 345, 472 345 C 471.391 345, 471 340.500, 471 333.500 C 471 326.500, 471.391 322, 472 322 C 472.550 322, 473 321.325, 473 320.500 C 473 319.389, 471.833 319, 468.500 319 C 465.249 319, 464 319.400, 464 320.441 C 464 321.234, 464.450 322.160, 465 322.500 C 465.550 322.840, 466 324.891, 466 327.059 C 466 330.896, 465.908 331, 462.500 331 C 459.025 331, 459 330.968, 459 326.559 C 459 324.116, 459.450 321.840, 460 321.500 C 460.550 321.160, 461 320.459, 461 319.941 C 461 318.747, 452.306 318.696, 451.570 319.887 M 28 325.566 C 28 331.012, 28.058 331.126, 30.673 330.816 C 36.177 330.165, 35.523 320, 29.977 320 C 28.244 320, 28 320.688, 28 325.566 M 164.800 321.200 C 165.589 321.989, 166 326.200, 166 333.500 C 166 340.800, 165.589 345.011, 164.800 345.800 C 163.099 347.501, 170.027 347.432, 172.361 345.725 C 174.008 344.521, 173.989 344.204, 172.012 339.975 C 169.921 335.500, 169.921 335.500, 170.210 340.667 C 170.431 344.595, 170.212 345.594, 169.300 344.836 C 168.070 343.813, 167.606 327.723, 168.678 323.250 C 169.654 319.175, 170.506 320.902, 170.158 326.249 C 169.789 331.911, 170.744 331.867, 173.017 326.116 C 174.222 323.066, 174.169 322.597, 172.486 321.366 C 170.065 319.596, 163.044 319.444, 164.800 321.200 M 174.763 322.542 C 175.031 323.940, 175.310 324.953, 175.385 324.792 C 175.460 324.631, 176.374 323.488, 177.416 322.250 C 179.301 320.011, 179.298 320, 176.794 320 C 174.638 320, 174.347 320.364, 174.763 322.542 M 240.229 320.669 C 237.768 321.660, 235.746 327.365, 235.701 333.446 C 235.648 340.845, 237.767 345.375, 241.970 346.840 C 245.435 348.048, 246.109 346.976, 242.820 345.487 C 238.211 343.400, 236.467 330.430, 239.892 323.711 C 240.933 321.670, 241.720 320.036, 241.642 320.079 C 241.564 320.122, 240.928 320.388, 240.229 320.669 M 309.965 321.934 C 310.534 322.998, 311 328.203, 311 333.500 C 311 338.797, 310.534 344.002, 309.965 345.066 C 309.001 346.867, 309.301 347, 314.319 347 C 320.767 347, 324.234 344.420, 325.914 338.373 C 327.250 333.560, 327.252 332.446, 325.929 327.685 C 324.238 321.593, 321.966 320, 314.965 320 C 309.308 320, 308.995 320.121, 309.965 321.934 M 453.965 321.934 C 454.534 322.998, 455 328.203, 455 333.500 C 455 338.797, 454.534 344.002, 453.965 345.066 C 453.046 346.783, 453.274 347, 456 347 C 458.726 347, 458.954 346.783, 458.035 345.066 C 457.466 344.002, 457 341.077, 457 338.566 C 457 334, 457 334, 462 334 C 467 334, 467 334, 467 339.300 C 467 342.215, 466.460 345.140, 465.800 345.800 C 464.867 346.733, 465.449 347, 468.422 347 C 471.519 347, 472.032 346.743, 471.124 345.649 C 469.393 343.563, 469.400 321.995, 471.132 320.897 C 472.039 320.323, 471.168 320.025, 468.550 320.015 C 465.478 320.003, 464.867 320.267, 465.800 321.200 C 466.460 321.860, 467 324.560, 467 327.200 C 467 332, 467 332, 462 332 C 457 332, 457 332, 457 327.934 C 457 325.698, 457.466 322.998, 458.035 321.934 C 458.954 320.217, 458.726 320, 456 320 C 453.274 320, 453.046 320.217, 453.965 321.934 M 29 325.500 C 29 328.785, 29.395 330, 30.465 330 C 32.883 330, 34.180 326.489, 32.844 323.557 C 30.942 319.382, 29 320.363, 29 325.500 M 241.314 323.648 C 239.066 327.083, 238.919 337.138, 241.052 341.500 C 244.903 349.376, 250.822 342.803, 249.591 332.018 C 248.989 326.746, 246.663 322.054, 244.253 321.251 C 243.634 321.045, 242.311 322.123, 241.314 323.648 M 313.714 321.619 C 313.321 322.012, 313 327.447, 313 333.698 C 313 345.891, 313.430 346.869, 318.252 345.645 C 321.533 344.812, 323.205 341.405, 323.694 334.554 C 324.260 326.618, 321.938 321.641, 317.464 321.203 C 315.794 321.039, 314.107 321.227, 313.714 321.619 M 314.430 323.321 C 314.151 324.048, 314.053 329.105, 314.212 334.560 C 314.527 345.394, 315.486 346.875, 319.864 343.292 C 322.267 341.325, 323.774 333.221, 322.604 328.558 C 321.368 323.634, 315.703 320.004, 314.430 323.321 M 388.667 329.667 C 387.629 330.704, 387.883 334, 389 334 C 389.550 334, 390 332.875, 390 331.500 C 390 328.882, 389.769 328.564, 388.667 329.667 M 99 332 C 99 333.100, 99.450 334, 100 334 C 100.550 334, 101 333.100, 101 332 C 101 330.900, 100.550 330, 100 330 C 99.450 330, 99 330.900, 99 332 M 171.232 332.221 C 170.213 333.448, 170.463 334.576, 172.599 338.399 C 174.062 341.015, 174.987 343.940, 174.700 345.038 C 174.261 346.716, 174.703 347, 177.749 347 C 181.067 347, 181.204 346.881, 179.753 345.250 C 178.897 344.288, 176.910 340.624, 175.337 337.110 C 172.924 331.716, 172.283 330.954, 171.232 332.221 M 28 338.531 C 28 343.656, 28.352 345.198, 29.636 345.691 C 32.581 346.821, 34.482 344.571, 34.808 339.570 C 35.156 334.224, 33.855 332, 30.378 332 C 28.117 332, 28 332.321, 28 338.531 M 29.667 333.667 C 28.683 334.650, 28.885 342.271, 29.939 343.936 C 31.469 346.354, 34 343.326, 34 339.078 C 34 334.600, 31.658 331.675, 29.667 333.667 M 94.399 343.412 C 93.331 346.893, 93.376 347, 95.899 346.985 C 97.403 346.976, 98.011 346.658, 97.340 346.231 C 96.702 345.826, 96.027 344.218, 95.840 342.658 C 95.501 339.833, 95.496 339.836, 94.399 343.412 M 382.667 344.667 C 381.296 346.038, 382.081 347, 384.571 347 C 386.857 347, 386.976 346.833, 385.643 345.500 C 383.957 343.814, 383.615 343.718, 382.667 344.667" stroke="none" fill="#2f3f78" fill-rule="evenodd"/><path d="M 21.117 131.359 C 20.294 132.350, 20.058 156.965, 20.245 222.384 C 20.500 312.050, 20.500 312.050, 244.500 312.046 C 367.700 312.044, 469.512 312.033, 470.750 312.021 C 473 312, 473 312, 473 221 C 473 130, 473 130, 247.622 130 C 58.905 130, 22.061 130.221, 21.117 131.359 M 95 142.641 C 93.867 142.950, 93.479 144.698, 93.414 149.775 C 93.350 154.755, 91.599 162.857, 86.665 181 C 75.003 223.875, 70.077 242.149, 66.498 255.801 C 60.689 277.963, 57.125 283.815, 48.755 284.932 C 44.500 285.500, 44.500 285.500, 44.197 290.768 C 43.894 296.036, 43.894 296.036, 68.197 295.768 C 92.500 295.500, 92.500 295.500, 92.828 292.629 C 93.554 286.276, 92.620 285.272, 85.567 284.823 C 73.904 284.081, 72.816 280.612, 78.092 261 C 83.998 239.050, 80.882 241.539, 102.833 241.228 C 113.375 241.079, 122 241.117, 122 241.314 C 122 241.510, 124.035 248.352, 126.522 256.518 C 133.786 280.368, 132.870 285, 120.889 285 C 115 285, 115 285, 115 290.500 C 115 296, 115 296, 144.500 296 C 174 296, 174 296, 174 290.611 C 174 285.272, 173.969 285.217, 170.591 284.583 C 168.403 284.173, 165.914 282.540, 163.642 280.026 C 159.994 275.987, 157.561 269.307, 149.977 242.500 C 148.265 236.450, 145.366 226.550, 143.533 220.500 C 141.701 214.450, 138.305 202.975, 135.987 195 C 125.072 157.459, 120.867 144.422, 119.295 143.250 C 117.711 142.070, 98.830 141.596, 95 142.641 M 236.112 143.581 C 212.855 149.835, 194.440 169.897, 187.282 196.776 C 185.026 205.251, 184.687 208.556, 184.643 222.500 C 184.601 236.041, 184.940 239.807, 186.851 247 C 193.904 273.543, 212.189 292.640, 235.299 297.599 C 243.562 299.372, 257.028 299.318, 264.825 297.479 C 288.661 291.860, 307.602 271.141, 314.627 243 C 317.293 232.323, 317.302 203.738, 314.643 193 C 308.486 168.139, 290.827 149.064, 268.936 143.630 C 260.771 141.602, 243.563 141.577, 236.112 143.581 M 346.722 144.874 C 337.495 145.768, 329.916 146.725, 329.880 147 C 329.715 148.276, 332.433 153, 333.332 153 C 333.888 153, 335.200 153.776, 336.248 154.724 C 337.296 155.672, 339.559 156.910, 341.277 157.474 C 343.155 158.091, 345.218 159.896, 346.451 162 C 348.449 165.412, 348.500 166.867, 348.500 220 C 348.500 270.217, 348.361 274.754, 346.733 277.733 C 344.509 281.802, 340.526 283.882, 333.224 284.789 C 327.500 285.500, 327.500 285.500, 327.196 290.802 C 326.892 296.104, 326.892 296.104, 367.696 295.766 C 413.568 295.385, 413.737 295.362, 424.960 287.868 C 447.669 272.703, 450.443 236.401, 430.300 217.991 C 427.367 215.311, 423.400 212.551, 421.484 211.858 C 418.052 210.617, 416.796 209, 419.263 209 C 422.168 209, 431.038 201.791, 433.680 197.284 C 436.067 193.211, 436.498 191.252, 436.817 183.031 C 437.129 175.007, 436.834 172.561, 434.950 167.559 C 430.690 156.245, 419.027 147.912, 402.792 144.581 C 392.887 142.549, 369.454 142.672, 346.722 144.874 M 235 157.034 C 227.878 160.916, 223.506 165.811, 219.311 174.598 C 210.488 193.079, 209.521 225.905, 217.073 250.558 C 221.794 265.970, 230.999 279.237, 240.500 284.324 C 246.616 287.599, 260.674 287.433, 267.383 284.007 C 285.102 274.958, 293.635 240.952, 287.835 202.500 C 285.433 186.570, 276.286 167.646, 267.514 160.458 C 261.345 155.403, 257.147 153.997, 248.282 154.018 C 241.546 154.034, 239.761 154.439, 235 157.034 M 375.233 179.750 C 375.500 205.500, 375.500 205.500, 382.500 205.827 C 397.692 206.536, 405.432 202.202, 408.631 191.196 C 411.727 180.546, 408.795 165.857, 402.365 159.803 C 397.762 155.470, 392.987 154, 383.515 154 C 374.966 154, 374.966 154, 375.233 179.750 M 94.679 200.296 C 90.968 214.158, 87.948 225.838, 87.966 226.250 C 88.010 227.227, 114.137 227.200, 115.675 226.222 C 116.525 225.681, 114.837 218.623, 109.575 200.720 C 105.573 187.105, 102.102 175.769, 101.862 175.529 C 101.622 175.288, 98.389 186.434, 94.679 200.296 M 379.681 216.710 C 374.862 217.115, 374.862 217.115, 375.181 245.308 C 375.528 275.961, 375.754 277.290, 381.327 281.410 C 383.499 283.016, 385.583 283.489, 390.327 283.454 C 393.722 283.428, 397.729 283.084, 399.232 282.689 C 402.956 281.710, 408.717 276.475, 411.004 271.992 C 413.846 266.422, 415.357 255.830, 414.602 246.775 C 412.761 224.707, 401.356 214.888, 379.681 216.710 M 24.259 319.659 C 23.318 320.039, 23.379 320.522, 24.509 321.652 C 26.761 323.904, 26.631 342.645, 24.345 345.171 C 22.760 346.922, 22.928 347, 28.272 347 C 33.170 347, 34.121 346.663, 36.023 344.250 C 37.699 342.124, 38.073 340.617, 37.671 337.606 C 37.385 335.464, 36.555 333.340, 35.826 332.886 C 34.754 332.219, 34.740 331.675, 35.750 330.044 C 39.056 324.710, 35.638 318.944, 29.250 319.079 C 27.188 319.122, 24.942 319.384, 24.259 319.659 M 99.402 321.536 C 99.024 323.042, 99.178 324.496, 99.753 324.857 C 100.674 325.435, 102.980 332.201, 102.994 334.363 C 102.997 334.838, 101.667 335.031, 100.038 334.792 C 98.116 334.510, 96.891 334.843, 96.546 335.740 C 96.208 336.621, 96.648 337.059, 97.758 336.946 C 102.776 336.437, 103.773 336.978, 104.448 340.576 C 104.867 342.808, 104.675 344.687, 103.937 345.576 C 102.956 346.758, 103.304 347, 105.985 347 C 108.665 347, 109.093 346.703, 108.501 345.250 C 108.108 344.288, 106.578 338.131, 105.100 331.569 C 102.407 319.611, 100.658 316.531, 99.402 321.536 M 244.692 320.010 C 245.897 320.495, 247.562 321.929, 248.391 323.196 C 251.869 328.509, 251.600 340.906, 247.922 344.854 C 246.822 346.034, 246.311 347, 246.787 347 C 247.262 347, 248.735 345.847, 250.059 344.437 C 252.050 342.318, 252.531 340.608, 252.836 334.584 C 253.342 324.548, 250.218 318.857, 244.316 319.063 C 242.814 319.116, 242.878 319.279, 244.692 320.010 M 388.683 319.650 C 387.498 320.835, 387.941 324.084, 389.500 325.643 C 390.325 326.468, 391 328.199, 391 329.490 C 391 330.780, 391.295 332.606, 391.656 333.546 C 392.217 335.007, 391.782 335.193, 388.656 334.828 C 386.051 334.524, 385 334.788, 385 335.745 C 385 336.483, 385.563 337.015, 386.250 336.925 C 391.339 336.264, 392.740 337.008, 393.337 340.687 C 393.678 342.793, 393.468 344.937, 392.845 345.687 C 391.983 346.725, 392.431 347, 394.985 347 C 397.676 347, 398.091 346.708, 397.474 345.250 C 397.067 344.288, 395.546 338.450, 394.094 332.277 C 391.555 321.484, 390.144 318.190, 388.683 319.650 M 28 325.566 C 28 331.012, 28.058 331.126, 30.673 330.816 C 36.177 330.165, 35.523 320, 29.977 320 C 28.244 320, 28 320.688, 28 325.566 M 164.800 321.200 C 165.589 321.989, 166 326.200, 166 333.500 C 166 340.800, 165.589 345.011, 164.800 345.800 C 163.867 346.733, 164.457 347, 167.455 347 C 171.135 347, 171.234 346.917, 169.644 345.160 C 167.360 342.636, 167.657 322.459, 170 320.979 C 171.094 320.287, 170.431 320.026, 167.550 320.015 C 164.478 320.003, 163.867 320.267, 164.800 321.200 M 174.763 322.542 C 175.031 323.940, 175.310 324.953, 175.385 324.792 C 175.460 324.631, 176.374 323.488, 177.416 322.250 C 179.301 320.011, 179.298 320, 176.794 320 C 174.638 320, 174.347 320.364, 174.763 322.542 M 240.229 320.669 C 237.768 321.660, 235.746 327.365, 235.701 333.446 C 235.648 340.845, 237.767 345.375, 241.970 346.840 C 245.435 348.048, 246.109 346.976, 242.820 345.487 C 238.211 343.400, 236.467 330.430, 239.892 323.711 C 240.933 321.670, 241.720 320.036, 241.642 320.079 C 241.564 320.122, 240.928 320.388, 240.229 320.669 M 309.965 321.934 C 310.534 322.998, 311 328.203, 311 333.500 C 311 338.797, 310.534 344.002, 309.965 345.066 C 309.001 346.867, 309.301 347, 314.319 347 C 320.767 347, 324.234 344.420, 325.914 338.373 C 327.250 333.560, 327.252 332.446, 325.929 327.685 C 324.238 321.593, 321.966 320, 314.965 320 C 309.308 320, 308.995 320.121, 309.965 321.934 M 453.965 321.934 C 454.534 322.998, 455 328.203, 455 333.500 C 455 338.797, 454.534 344.002, 453.965 345.066 C 453.046 346.783, 453.274 347, 456 347 C 458.726 347, 458.954 346.783, 458.035 345.066 C 457.466 344.002, 457 341.077, 457 338.566 C 457 334, 457 334, 462 334 C 467 334, 467 334, 467 339.300 C 467 342.215, 466.460 345.140, 465.800 345.800 C 464.867 346.733, 465.449 347, 468.422 347 C 471.519 347, 472.032 346.743, 471.124 345.649 C 469.393 343.563, 469.400 321.995, 471.132 320.897 C 472.039 320.323, 471.168 320.025, 468.550 320.015 C 465.478 320.003, 464.867 320.267, 465.800 321.200 C 466.460 321.860, 467 324.560, 467 327.200 C 467 332, 467 332, 462 332 C 457 332, 457 332, 457 327.934 C 457 325.698, 457.466 322.998, 458.035 321.934 C 458.954 320.217, 458.726 320, 456 320 C 453.274 320, 453.046 320.217, 453.965 321.934 M 313.714 321.619 C 313.321 322.012, 313 327.447, 313 333.698 C 313 345.891, 313.430 346.869, 318.252 345.645 C 321.533 344.812, 323.205 341.405, 323.694 334.554 C 324.260 326.618, 321.938 321.641, 317.464 321.203 C 315.794 321.039, 314.107 321.227, 313.714 321.619 M 171.232 332.221 C 170.213 333.448, 170.463 334.576, 172.599 338.399 C 174.062 341.015, 174.987 343.940, 174.700 345.038 C 174.261 346.716, 174.703 347, 177.749 347 C 181.067 347, 181.204 346.881, 179.753 345.250 C 178.897 344.288, 176.910 340.624, 175.337 337.110 C 172.924 331.716, 172.283 330.954, 171.232 332.221 M 28 338.531 C 28 343.656, 28.352 345.198, 29.636 345.691 C 32.581 346.821, 34.482 344.571, 34.808 339.570 C 35.156 334.224, 33.855 332, 30.378 332 C 28.117 332, 28 332.321, 28 338.531 M 94.399 343.412 C 93.331 346.893, 93.376 347, 95.899 346.985 C 97.403 346.976, 98.011 346.658, 97.340 346.231 C 96.702 345.826, 96.027 344.218, 95.840 342.658 C 95.501 339.833, 95.496 339.836, 94.399 343.412 M 382.667 344.667 C 381.296 346.038, 382.081 347, 384.571 347 C 386.857 347, 386.976 346.833, 385.643 345.500 C 383.957 343.814, 383.615 343.718, 382.667 344.667" stroke="none" fill="#546bd3" fill-rule="evenodd"/></svg>